<?xml version="1.0" encoding="UTF-8" standalone="no"?>
<!DOCTYPE svg PUBLIC "-//W3C//DTD SVG 1.1//EN" "http://www.w3.org/Graphics/SVG/1.1/DTD/svg11.dtd">
<svg width="100%" height="100%" viewBox="0 0 696 223" version="1.1" xmlns="http://www.w3.org/2000/svg" xmlns:xlink="http://www.w3.org/1999/xlink" xml:space="preserve" xmlns:serif="http://www.serif.com/" style="fill-rule:evenodd;clip-rule:evenodd;stroke-linejoin:round;stroke-miterlimit:2;">
    <g transform="matrix(1,0,0,1,-1291.69,-992.582)">
        <path d="M1326.01,1073.87C1319.9,1075.04 1314.98,1078.31 1311.27,1083.67C1306.51,1090.54 1301.28,1102.74 1295.56,1120.29L1291.69,1120.29L1293.73,1069.08L1414.09,1069.08L1416.13,1120.29L1412.25,1120.29C1406.27,1102.2 1400.96,1089.86 1396.34,1083.26C1392.74,1078.12 1387.89,1074.98 1381.81,1073.85L1381.81,1207.6L1391.24,1207.6L1391.24,1211.88L1316.78,1211.88L1316.78,1207.6L1326.01,1207.6L1326.01,1073.87ZM1725.14,1073.87C1719.03,1075.04 1714.12,1078.31 1710.4,1083.67C1705.64,1090.54 1700.41,1102.74 1694.7,1120.29L1690.82,1120.29L1692.86,1069.08L1813.22,1069.08L1815.26,1120.29L1811.38,1120.29C1805.4,1102.2 1800.1,1089.86 1795.47,1083.26C1791.87,1078.12 1787.02,1074.98 1780.94,1073.85L1780.94,1207.6L1790.37,1207.6L1790.37,1211.88L1715.91,1211.88L1715.91,1207.6L1725.14,1207.6L1725.14,1073.87ZM1498.68,1141.38L1507.38,1141.38L1507.38,1118.28C1507.38,1099.28 1506.33,1086.53 1504.23,1080.03C1502.13,1073.53 1498.08,1070.28 1492.08,1070.28C1488.48,1070.28 1485.23,1071.23 1482.33,1073.13C1479.43,1075.03 1477.98,1077.63 1477.98,1080.93C1477.98,1084.23 1478.58,1087.58 1479.78,1090.98L1487.28,1090.98C1488.88,1095.18 1489.68,1100.23 1489.68,1106.13C1489.68,1112.03 1487.18,1117.13 1482.18,1121.43C1477.18,1125.73 1470.88,1127.88 1463.28,1127.88C1446.08,1127.88 1437.48,1119.58 1437.48,1102.98C1437.48,1078.38 1458.38,1066.08 1500.18,1066.08C1523.98,1066.08 1540.43,1070.13 1549.53,1078.23C1558.63,1086.33 1563.18,1101.18 1563.18,1122.78L1563.18,1183.68C1563.18,1194.08 1566.08,1199.28 1571.88,1199.28C1578.68,1199.28 1582.68,1188.98 1583.88,1168.38L1588.38,1168.68C1587.58,1186.28 1584.28,1198.38 1578.48,1204.98C1572.68,1211.58 1563.18,1214.88 1549.98,1214.88C1525.98,1214.88 1512.18,1207.48 1508.58,1192.68C1505.98,1200.28 1502.08,1205.88 1496.88,1209.48C1491.68,1213.08 1484.08,1214.88 1474.08,1214.88C1444.48,1214.88 1429.68,1202.78 1429.68,1178.58C1429.68,1164.38 1435.33,1154.63 1446.63,1149.33C1457.93,1144.03 1475.28,1141.38 1498.68,1141.38ZM1486.68,1178.28C1486.68,1188.68 1487.23,1195.38 1488.33,1198.38C1489.43,1201.38 1491.53,1202.88 1494.63,1202.88C1497.73,1202.88 1500.63,1200.33 1503.33,1195.23C1506.03,1190.13 1507.38,1183.08 1507.38,1174.08L1507.38,1146.18L1505.28,1146.18C1492.88,1146.18 1486.68,1155.28 1486.68,1173.48L1486.68,1178.28ZM1635.48,1048.38C1624.88,1048.38 1617.33,1045.68 1612.83,1040.28C1608.33,1034.88 1606.08,1028.18 1606.08,1020.18C1606.08,1012.18 1608.53,1005.58 1613.43,1000.38C1618.33,995.182 1625.78,992.582 1635.78,992.582C1645.78,992.582 1653.38,994.932 1658.58,999.632C1663.78,1004.33 1666.38,1011.03 1666.38,1019.73C1666.38,1028.43 1663.88,1035.38 1658.88,1040.58C1653.88,1045.78 1646.08,1048.38 1635.48,1048.38ZM1590.18,1069.08L1663.68,1069.08L1663.68,1206.48L1680.48,1206.48L1680.48,1211.88L1591.38,1211.88L1591.38,1206.48L1607.88,1206.48L1607.88,1074.48L1590.18,1074.48L1590.18,1069.08ZM1897.81,1141.38L1906.51,1141.38L1906.51,1118.28C1906.51,1099.28 1905.46,1086.53 1903.36,1080.03C1901.26,1073.53 1897.21,1070.28 1891.21,1070.28C1887.61,1070.28 1884.36,1071.23 1881.46,1073.13C1878.56,1075.03 1877.11,1077.63 1877.11,1080.93C1877.11,1084.23 1877.71,1087.58 1878.91,1090.98L1886.41,1090.98C1888.01,1095.18 1888.81,1100.23 1888.81,1106.13C1888.81,1112.03 1886.31,1117.13 1881.31,1121.43C1876.31,1125.73 1870.01,1127.88 1862.41,1127.88C1845.21,1127.88 1836.61,1119.58 1836.61,1102.98C1836.61,1078.38 1857.51,1066.08 1899.31,1066.08C1923.11,1066.08 1939.56,1070.13 1948.66,1078.23C1957.76,1086.33 1962.31,1101.18 1962.31,1122.78L1962.31,1183.68C1962.31,1194.08 1965.21,1199.28 1971.01,1199.28C1977.81,1199.28 1981.81,1188.98 1983.01,1168.38L1987.51,1168.68C1986.71,1186.28 1983.41,1198.38 1977.61,1204.98C1971.81,1211.58 1962.31,1214.88 1949.11,1214.88C1925.11,1214.88 1911.31,1207.48 1907.71,1192.68C1905.11,1200.28 1901.21,1205.88 1896.01,1209.48C1890.81,1213.08 1883.21,1214.88 1873.21,1214.88C1843.61,1214.88 1828.81,1202.78 1828.81,1178.58C1828.81,1164.38 1834.46,1154.63 1845.76,1149.33C1857.06,1144.03 1874.41,1141.38 1897.81,1141.38ZM1885.81,1178.28C1885.81,1188.68 1886.36,1195.38 1887.46,1198.38C1888.56,1201.38 1890.66,1202.88 1893.76,1202.88C1896.86,1202.88 1899.76,1200.33 1902.46,1195.23C1905.16,1190.13 1906.51,1183.08 1906.51,1174.08L1906.51,1146.18L1904.41,1146.18C1892.01,1146.18 1885.81,1155.28 1885.81,1173.48L1885.81,1178.28Z" style="fill:rgb(31,44,55);"/>
    </g>
</svg>
